<svg xmlns="http://www.w3.org/2000/svg" xmlns:xlink="http://www.w3.org/1999/xlink" width="500" zoomAndPan="magnify" viewBox="0 0 375 374.999991" height="500" preserveAspectRatio="xMidYMid meet" version="1.2"><defs/><g id="fb951f0c2a"><g style="fill:#ffffff;fill-opacity:1;"><g transform="translate(50.07422, 200.187217)"><path style="stroke:none" d="M 1.96875 0 L 1.96875 -10.265625 L 6.5625 -10.265625 L 6.5625 -45.03125 L 1.96875 -45.03125 L 1.96875 -55.21875 L 31.4375 -55.21875 C 38.019531 -55.21875 42.890625 -54.046875 46.046875 -51.703125 C 49.210938 -49.359375 50.796875 -46.03125 50.796875 -41.71875 C 50.796875 -38.394531 50.242188 -35.820312 49.140625 -34 C 48.035156 -32.1875 46.007812 -30.675781 43.0625 -29.46875 C 45.90625 -28.675781 48.351562 -27.195312 50.40625 -25.03125 C 52.457031 -22.875 53.484375 -19.875 53.484375 -16.03125 C 53.484375 -10.445312 51.8125 -6.378906 48.46875 -3.828125 C 45.125 -1.273438 39.632812 0 32 0 Z M 22.90625 -44.796875 L 22.90625 -32.9375 L 27.734375 -32.9375 C 29.835938 -32.9375 31.253906 -33.476562 31.984375 -34.5625 C 32.722656 -35.644531 33.09375 -37.132812 33.09375 -39.03125 C 33.09375 -40.875 32.601562 -42.296875 31.625 -43.296875 C 30.65625 -44.296875 29.410156 -44.796875 27.890625 -44.796875 Z M 22.90625 -10.265625 L 29.234375 -10.265625 C 30.921875 -10.265625 32.40625 -10.867188 33.6875 -12.078125 C 34.976562 -13.296875 35.625 -14.957031 35.625 -17.0625 C 35.625 -19.0625 35.054688 -20.71875 33.921875 -22.03125 C 32.796875 -23.351562 31.15625 -24.015625 29 -24.015625 L 22.90625 -24.015625 Z M 22.90625 -10.265625 "/></g></g><g style="fill:#ffffff;fill-opacity:1;"><g transform="translate(104.355466, 221.312755)"><path style="stroke:none" d="M 54.515625 0 L 41 0 L 18.40625 -34.203125 L 18.40625 0 L 4.890625 0 L 4.890625 -55.453125 L 18.40625 -55.453125 L 41 -21.09375 L 41 -55.453125 L 54.515625 -55.453125 Z M 54.515625 0 "/></g></g><g style="fill:#ffffff;fill-opacity:1;"><g transform="translate(163.760506, 221.312755)"><path style="stroke:none" d="M 46.453125 -22.75 C 46.453125 -21.488281 46.375 -20.171875 46.21875 -18.796875 L 15.640625 -18.796875 C 15.847656 -16.054688 16.726562 -13.960938 18.28125 -12.515625 C 19.84375 -11.066406 21.753906 -10.34375 24.015625 -10.34375 C 27.390625 -10.34375 29.734375 -11.765625 31.046875 -14.609375 L 45.421875 -14.609375 C 44.679688 -11.710938 43.347656 -9.101562 41.421875 -6.78125 C 39.503906 -4.46875 37.097656 -2.65625 34.203125 -1.34375 C 31.304688 -0.03125 28.066406 0.625 24.484375 0.625 C 20.171875 0.625 16.328125 -0.289062 12.953125 -2.125 C 9.585938 -3.96875 6.957031 -6.601562 5.0625 -10.03125 C 3.164062 -13.457031 2.21875 -17.460938 2.21875 -22.046875 C 2.21875 -26.617188 3.148438 -30.617188 5.015625 -34.046875 C 6.890625 -37.472656 9.507812 -40.109375 12.875 -41.953125 C 16.25 -43.796875 20.117188 -44.71875 24.484375 -44.71875 C 28.753906 -44.71875 32.546875 -43.820312 35.859375 -42.03125 C 39.179688 -40.238281 41.773438 -37.679688 43.640625 -34.359375 C 45.515625 -31.046875 46.453125 -27.175781 46.453125 -22.75 Z M 32.625 -26.3125 C 32.625 -28.625 31.832031 -30.460938 30.25 -31.828125 C 28.675781 -33.203125 26.703125 -33.890625 24.328125 -33.890625 C 22.066406 -33.890625 20.160156 -33.226562 18.609375 -31.90625 C 17.054688 -30.59375 16.09375 -28.726562 15.71875 -26.3125 Z M 32.625 -26.3125 "/></g></g><g style="fill:#ffffff;fill-opacity:1;"><g transform="translate(212.422074, 221.312755)"><path style="stroke:none" d="M 68.171875 -44.078125 L 56.25 0 L 41.3125 0 L 34.359375 -28.59375 L 27.171875 0 L 12.328125 0 L 0.3125 -44.078125 L 13.828125 -44.078125 L 20.0625 -12.5625 L 27.484375 -44.078125 L 41.796875 -44.078125 L 49.296875 -12.71875 L 55.453125 -44.078125 Z M 68.171875 -44.078125 "/></g></g><g style="fill:#ffffff;fill-opacity:1;"><g transform="translate(280.832665, 221.312755)"><path style="stroke:none" d="M 22.828125 0.625 C 18.984375 0.625 15.5625 -0.03125 12.5625 -1.34375 C 9.5625 -2.65625 7.191406 -4.457031 5.453125 -6.75 C 3.710938 -9.039062 2.738281 -11.609375 2.53125 -14.453125 L 15.875 -14.453125 C 16.03125 -12.929688 16.738281 -11.695312 18 -10.75 C 19.269531 -9.800781 20.828125 -9.328125 22.671875 -9.328125 C 24.359375 -9.328125 25.660156 -9.65625 26.578125 -10.3125 C 27.503906 -10.96875 27.96875 -11.820312 27.96875 -12.875 C 27.96875 -14.132812 27.304688 -15.066406 25.984375 -15.671875 C 24.671875 -16.285156 22.539062 -16.960938 19.59375 -17.703125 C 16.4375 -18.429688 13.800781 -19.203125 11.6875 -20.015625 C 9.582031 -20.835938 7.765625 -22.128906 6.234375 -23.890625 C 4.710938 -25.660156 3.953125 -28.046875 3.953125 -31.046875 C 3.953125 -33.578125 4.648438 -35.878906 6.046875 -37.953125 C 7.441406 -40.035156 9.492188 -41.679688 12.203125 -42.890625 C 14.921875 -44.109375 18.148438 -44.71875 21.890625 -44.71875 C 27.410156 -44.71875 31.765625 -43.347656 34.953125 -40.609375 C 38.140625 -37.867188 39.972656 -34.234375 40.453125 -29.703125 L 27.96875 -29.703125 C 27.757812 -31.234375 27.085938 -32.445312 25.953125 -33.34375 C 24.816406 -34.238281 23.328125 -34.6875 21.484375 -34.6875 C 19.910156 -34.6875 18.703125 -34.378906 17.859375 -33.765625 C 17.015625 -33.160156 16.59375 -32.332031 16.59375 -31.28125 C 16.59375 -30.019531 17.265625 -29.070312 18.609375 -28.4375 C 19.953125 -27.800781 22.046875 -27.171875 24.890625 -26.546875 C 28.148438 -25.703125 30.804688 -24.867188 32.859375 -24.046875 C 34.910156 -23.234375 36.710938 -21.914062 38.265625 -20.09375 C 39.828125 -18.28125 40.632812 -15.847656 40.6875 -12.796875 C 40.6875 -10.210938 39.960938 -7.90625 38.515625 -5.875 C 37.066406 -3.851562 34.984375 -2.265625 32.265625 -1.109375 C 29.554688 0.046875 26.410156 0.625 22.828125 0.625 Z M 22.828125 0.625 "/></g></g></g></svg>