<svg xmlns="http://www.w3.org/2000/svg" xmlns:xlink="http://www.w3.org/1999/xlink" width="500" zoomAndPan="magnify" viewBox="0 0 375 374.999991" height="500" preserveAspectRatio="xMidYMid meet" version="1.0"><defs><g/></defs><g fill="#000000" fill-opacity="1"><g transform="translate(44.41071, 288.631006)"><g><path d="M 191.609375 -216.796875 L 144.34375 -0.203125 L 13.28125 -0.203125 C 11.71875 -0.203125 10.09375 -0.722656 8.40625 -1.765625 C 6.707031 -2.929688 5.207031 -4.234375 3.90625 -5.671875 C 2.738281 -6.972656 1.765625 -8.535156 0.984375 -10.359375 C 0.191406 -11.785156 -0.0664062 -13.148438 0.203125 -14.453125 L 21.09375 -109.765625 L 68.953125 -80.28125 L 60.546875 -42 L 99.21875 -42 L 130.859375 -186.328125 L 107.421875 -216.796875 Z M 191.609375 -216.796875 "/></g></g></g><g fill="#1791c8" fill-opacity="1"><g transform="translate(169.547865, 288.631006)"><g><path d="M 17.78125 -216.796875 L 102.15625 -216.796875 L 63.875 -42 L 86.328125 -42 L 90.828125 -62.3125 L 144.921875 -62.3125 L 131.453125 -0.203125 L 0.203125 -0.203125 L 41.015625 -186.53125 Z M 17.78125 -216.796875 "/></g></g></g></svg>