<svg xmlns="http://www.w3.org/2000/svg" xmlns:xlink="http://www.w3.org/1999/xlink" width="500" zoomAndPan="magnify" viewBox="0 0 375 374.999991" height="500" preserveAspectRatio="xMidYMid meet" version="1.0"><defs><g/></defs><g fill="#ffffff" fill-opacity="1"><g transform="translate(54.328127, 264.6916)"><g><path d="M 74.15625 -146 L 74.15625 -41.234375 C 74.15625 -26.960938 70.226562 -16.078125 62.375 -8.578125 C 54.53125 -1.085938 43.296875 2.65625 28.671875 2.65625 C 24.773438 2.65625 20.9375 2.179688 17.15625 1.234375 C 13.382812 0.296875 10.203125 -0.847656 7.609375 -2.203125 C 5.015625 -3.566406 2.679688 -4.957031 0.609375 -6.375 C -1.453125 -7.789062 -2.953125 -8.96875 -3.890625 -9.90625 L -5.484375 -11.328125 L 5.125 -39.109375 C 12.09375 -32.503906 18.40625 -29.203125 24.0625 -29.203125 C 29.132812 -29.203125 33.203125 -30.878906 36.265625 -34.234375 C 39.335938 -37.597656 40.875 -42.765625 40.875 -49.734375 L 40.875 -146 Z M 74.15625 -146 "/></g></g></g><g fill="#ffffff" fill-opacity="1"><g transform="translate(122.282178, 264.6916)"><g><path d="M 122.640625 0 L 99.28125 -81.9375 L 75.921875 0 L 38.9375 0 L -2.65625 -146 L 34.328125 -146 L 59.28125 -45.828125 L 60.171875 -45.828125 L 86.71875 -146 L 111.84375 -146 L 138.390625 -45.828125 L 139.28125 -45.828125 L 164.234375 -146 L 201.03125 -146 L 159.453125 0 Z M 122.640625 0 "/></g></g></g></svg>